<svg xmlns="http://www.w3.org/2000/svg" viewBox="0 0 256 256" width="160" height="160"><g fill="none" stroke-width="none" stroke-miterlimit="10" font-family="none" font-weight="none" font-size="none" text-anchor="none" style="mix-blend-mode:normal"><path d="M128 246.4C62.72 246.4 9.6 193.28 9.6 128S62.72 9.6 128 9.6 246.4 62.72 246.4 128 193.28 246.4 128 246.4z" fill="red"/><path d="M128 12.8c63.36 0 115.2 51.84 115.2 115.2S191.36 243.2 128 243.2 12.8 191.36 12.8 128 64.64 12.8 128 12.8m0-6.4C60.8 6.4 6.4 60.8 6.4 128c0 67.2 54.4 121.6 121.6 121.6 67.2 0 121.6-54.4 121.6-121.6C249.6 60.8 195.2 6.4 128 6.4z" fill="red"/><path d="m71.68 128.64 37.12 37.12 84.48-84.48" stroke="#fff" stroke-width="19.200000000000003"/></g></svg>